<?xml version="1.0" encoding="UTF-8"?>
<svg width="92px" height="31px" viewBox="0 0 92 31" version="1.1" xmlns="http://www.w3.org/2000/svg" xmlns:xlink="http://www.w3.org/1999/xlink">
    <!-- Generator: Sketch 54.1 (76490) - https://sketchapp.com -->
    <title>logo</title>
    <desc>Created with Sketch.</desc>
    <g id="Page-1" stroke="none" stroke-width="1" fill="none" fill-rule="evenodd">
        <g id="Home" transform="translate(-638.000000, -1608.000000)" fill="#000000">
            <g id="Group-8" transform="translate(0.000000, 1565.000000)">
                <g id="Group-2">
                    <g id="Group-5" transform="translate(410.500000, 43.500000)">
                        <g id="logo-2" transform="translate(228.000000, 0.000000)">
                            <g id="logo">
                                <g id="Asset-7">
                                    <path d="M10.9968946,2.83764275 C12.4164442,3.54505702 13.5910459,4.6653467 14.3677657,6.05264922 C15.14887,7.44478493 15.5388503,9.0838754 15.5377067,10.9699206 C15.5365631,12.8559659 15.1465827,14.4904619 14.3677657,15.8734085 C13.5922102,17.2510085 12.4160835,18.3577239 10.9968946,19.0453415 C9.53189522,19.7781654 7.79871284,20.1440031 5.7973475,20.1428544 L0.0848790108,20.1428571 L0.0848790108,1.71428571 L5.7973475,1.71428571 C7.79985648,1.71428571 9.53303886,2.08873806 10.9968946,2.83764275 Z M11.2216194,16.2765766 C12.4670404,15.0130871 13.089751,13.2459247 13.089751,10.9750895 C13.089751,8.67783582 12.4607504,6.88884955 11.2027494,5.60813064 C9.9447483,4.32741173 8.14294768,3.68130915 5.7973475,3.66982288 L2.48651742,3.66982288 L2.48651742,18.1597502 L5.7973475,18.1597502 C8.16467679,18.1597502 9.97276742,17.5297284 11.2216194,16.2696848 L11.2216194,16.2765766 Z" id="Shape" fill-rule="nonzero"></path>
                                    <path d="M18.986591,2.80651447 C18.6950146,2.50015801 18.5343945,2.07821553 18.5427356,1.64052426 C18.5348406,1.20342815 18.6954258,0.782201555 18.986591,0.476258881 C19.270078,0.165383099 19.6602919,-0.00676612914 20.0656742,0.000203704717 C20.4621065,-0.00663244913 20.8428321,0.166225485 21.1142022,0.476258881 C21.3991672,0.785701795 21.5552163,1.20568173 21.5468004,1.64052426 C21.5554692,2.075925 21.3994148,2.49654146 21.1142022,2.80651447 C20.8419852,3.11464046 20.4613717,3.28556915 20.0656742,3.27739514 C19.6610051,3.28572317 19.2708951,3.11549047 18.986591,2.80651447 Z M21.159231,5.63697297 L21.159231,20.1428571 L18.9077906,20.1428571 L18.9077906,5.63697297 L21.159231,5.63697297 Z" id="Shape" fill-rule="nonzero"></path>
                                    <path d="M43.0864241,2.93562391 C42.7540834,2.61518476 42.5710075,2.17384631 42.5805147,1.71603512 C42.571516,1.25884644 42.754552,0.818256783 43.0864241,0.498250446 C43.411553,0.171607103 43.8591955,-0.00854511317 44.3237027,0.000311825059 C44.7761489,-0.00712393814 45.2107804,0.173685096 45.5206551,0.498250446 C45.8454602,0.821917922 46.0233261,1.26120362 46.0137336,1.71603512 C46.0236144,2.17145049 45.8457425,2.61140197 45.5206551,2.93562391 C45.2098153,3.25819439 44.7753115,3.43698557 44.3237027,3.42815015 C43.8600099,3.43842746 43.4124862,3.2602807 43.0864241,2.93562391 L43.0864241,2.93562391 Z" id="Path" fill-rule="nonzero"></path>
                                    <path d="M37.9357511,7.2167633 C37.6032329,6.89681181 37.4200592,6.456145 37.4295715,5.99903053 C37.4251175,5.54335786 37.6074418,5.10507463 37.935498,4.78285055 C38.2635543,4.46062647 38.7097703,4.28154354 39.1736905,4.2859183 C39.6257881,4.27877878 40.0599735,4.45930754 40.3694482,4.78309914 C40.6944268,5.10627404 40.8723876,5.54489122 40.86279,5.99903053 C40.872676,6.45375283 40.6947091,6.89303477 40.3694482,7.2167633 C40.0599735,7.54055489 39.6257881,7.72108365 39.1736905,7.71394413 C38.7088534,7.7232188 38.2608044,7.54327349 37.9357511,7.2167633 L37.9357511,7.2167633 Z" id="Path" fill-rule="nonzero"></path>
                                    <rect id="Rectangle" fill-rule="nonzero" x="43.0094073" y="5.57142857" width="2.5754717" height="14.5714286"></rect>
                                    <polygon id="Path" fill-rule="nonzero" points="72.6273318 1.71428571 67.3128951 20.1222127 64.6299617 20.1222127 60.3681263 5.30469167 55.9485721 20.1153313 53.2913537 20.1428571 48.1603507 1.71428571 50.7129947 1.71428571 54.7125369 17.3180145 59.1303768 1.71428571 61.8150245 1.71428571 66.0237156 17.2646831 70.0489728 1.71428571"></polygon>
                                    <path d="M75.2806744,2.80656449 C74.9472466,2.50056194 74.7637764,2.07838292 74.7739608,1.64057764 C74.7640665,1.20332878 74.9475311,0.781787233 75.2806744,0.476315617 C75.6051901,0.164561877 76.0521877,-0.0076617317 76.5162478,0.00026181401 C76.9688224,-0.00657432012 77.4034658,0.166283115 77.713267,0.476315617 C78.0385884,0.785757638 78.2167369,1.20573636 78.2071292,1.64057764 C78.2170257,2.07597712 78.038871,2.49659237 77.713267,2.80656449 C77.402499,3.11468958 76.9679835,3.28561778 76.5162478,3.27744379 C76.0530036,3.2867248 75.6061251,3.11641857 75.2806744,2.80656449 L75.2806744,2.80656449 Z M77.7591649,5.63701481 L77.7591649,20.1428571 L75.1888784,20.1428571 L75.1888784,5.63701481 L77.7591649,5.63701481 Z" id="Shape" fill-rule="nonzero"></path>
                                    <polygon id="Path" fill-rule="nonzero" points="83.5347798 18.1485986 90.6556337 18.1485986 90.6556337 20.1428571 80.7829922 20.1428571 80.7829922 18.1485986 87.8210856 7.53276711 80.8364417 7.53276711 80.8364417 5.57142857 90.5987359 5.57142857 90.5987359 7.53276711"></polygon>
                                    <path d="M31.6414351,5.57143178 C28.6026149,5.56863735 25.8614601,7.39415409 24.6966141,10.1964486 C23.5317681,12.9987431 24.172727,16.2257118 26.3205081,18.3720978 C28.4682892,20.5184838 31.6997401,21.1614096 34.5075131,20.000975 C37.3152862,18.8405405 39.1461985,16.1053724 39.1461998,13.0713218 C39.1452482,8.93233704 35.7869255,5.57619569 31.6414351,5.57143178 Z M31.6414351,18.1069375 C28.8559683,18.1069375 26.5979012,15.8524156 26.5979012,13.0713218 C26.5979012,10.290228 28.8559683,8.03570601 31.6414351,8.03570601 C34.426902,8.03570601 36.6849691,10.290228 36.6849691,13.0713218 C36.6854281,14.4069905 36.1542047,15.6880854 35.2082591,16.6325459 C34.2623135,17.5770064 32.9792042,18.1073958 31.6414351,18.1069375 Z" id="Shape" fill-rule="nonzero"></path>
                                    <path d="M39.1461998,22.7142857 C39.1461997,26.7380746 35.7830557,30 31.6344073,30 C27.485759,30 24.1226149,26.7380746 24.1226149,22.7142857 L26.5907999,22.7142857 C26.5907999,25.4159594 28.8488999,27.6060986 31.6344073,27.6060986 C34.4199147,27.6060986 36.6780147,25.4159594 36.6780147,22.7142857 L39.1461998,22.7142857 Z" id="Path" fill-rule="nonzero"></path>
                                </g>
                            </g>
                        </g>
                    </g>
                </g>
            </g>
        </g>
    </g>
</svg>