<?xml version="1.0" encoding="UTF-8"?>
<svg width="24px" height="23px" viewBox="0 0 24 23" version="1.1" xmlns="http://www.w3.org/2000/svg" xmlns:xlink="http://www.w3.org/1999/xlink">
    <!-- Generator: Sketch 54.1 (76490) - https://sketchapp.com -->
    <title>noun_Arrow_8545 Copy 3</title>
    <desc>Created with Sketch.</desc>
    <g id="Page-1" stroke="none" stroke-width="1" fill="none" fill-rule="evenodd">
        <g id="Home" transform="translate(-244.000000, -1217.000000)" fill="#000000" fill-rule="nonzero">
            <g id="What-readers" transform="translate(0.000000, 696.000000)">
                <g id="Group-6" transform="translate(63.000000, 501.000000)">
                    <g id="Group-9">
                        <g id="noun_Arrow_8545-Copy-3" transform="translate(181.000000, 20.000000)">
                            <g id="Group" transform="translate(0.105263, 0.000000)">
                                <path d="M11.5,0.225039216 C5.15867,0.225039216 0,5.2830098 0,11.5 C0,17.7167647 5.15867,22.7749608 11.5,22.7749608 C17.8411,22.7749608 23,17.7167647 23,11.5 C23,5.2830098 17.8411,0.225039216 11.5,0.225039216 Z M11.5,21.4741078 C5.8903,21.4741078 1.3271,16.9997059 1.3271,11.5 C1.3271,6.00006863 5.8903,1.52611765 11.5,1.52611765 C17.1097,1.52611765 21.6729,6.00029412 21.6729,11.5 C21.6729,16.9997059 17.1097,21.4741078 11.5,21.4741078 Z" id="Shape"></path>
                                <path d="M10.30009,5.75045098 C10.04088,5.49632353 9.62113,5.49632353 9.36192,5.75045098 C9.10271,6.00435294 9.10271,6.41609804 9.36192,6.67022549 L14.28806,11.5 L9.36192,16.329549 C9.10271,16.5836765 9.10271,16.9951961 9.36192,17.2493235 C9.49141,17.3762745 9.66138,17.4398627 9.83112,17.4398627 C10.00086,17.4398627 10.1706,17.3765 10.30032,17.2493235 L15.6952,11.9597745 C15.95441,11.7056471 15.95441,11.2941275 15.6952,11.04 L10.30009,5.75045098 Z" id="Path"></path>
                            </g>
                        </g>
                    </g>
                </g>
            </g>
        </g>
    </g>
</svg>